<svg width="78" height="95" viewBox="0 0 78 95" fill="none" xmlns="http://www.w3.org/2000/svg">
<path d="M33.8709 10.4666C35.2755 8.1021 38.1844 7.6869 40.3681 9.5392L68.2101 33.1552C70.6583 35.2318 71.1017 39.1938 69.1395 41.4596L67.3211 43.5595C67.1533 43.7533 67.0004 43.9636 66.8638 44.1886L44.7662 80.5808C44.5665 80.9096 44.4028 81.2678 44.2784 81.6482L43.6347 83.6158C42.6034 86.7682 39.2096 87.7212 36.6738 85.5703L9.09831 62.1804C6.91454 60.328 6.28286 56.9097 7.68741 54.5452L33.8709 10.4666Z" fill="#8EEBFF"/>
<path fill-rule="evenodd" clip-rule="evenodd" d="M39.6493 7.49399C37.4657 5.64126 34.5569 6.05606 33.1524 8.42045L6.96951 52.4973C5.565 54.8617 6.19659 58.2803 8.38022 60.1331L35.954 83.5283C38.4896 85.6797 41.8833 84.7272 42.9146 81.5747L43.5582 79.6071C43.6827 79.2267 43.8464 78.8685 44.046 78.5397L66.1432 42.1491C66.2798 41.9241 66.4327 41.7138 66.6004 41.52L68.4188 39.4203C70.381 37.1547 69.9376 33.1924 67.4896 31.1153L39.6493 7.49399ZM39.7557 19.1986C38.7085 18.3101 37.3136 18.509 36.64 19.6429C35.9664 20.7768 36.2693 22.4162 37.3165 23.3047L55.2247 38.4991C56.2719 39.3876 57.6668 39.1887 58.3404 38.0548C59.0139 36.9209 58.7111 35.2814 57.6639 34.3929L39.7557 19.1986ZM32.7279 27.2794C33.4015 26.1455 34.7964 25.9466 35.8436 26.8351L53.7518 42.0294C54.799 42.9179 55.1019 44.5574 54.4283 45.6913C53.7547 46.8252 52.3598 47.0241 51.3126 46.1356L33.4044 30.9412C32.3572 30.0527 32.0543 28.4133 32.7279 27.2794ZM17.0303 48.0305C15.6266 46.8395 13.7566 47.1061 12.8537 48.6261L12.5221 49.1844C11.6192 50.7044 12.0252 52.9021 13.4289 54.0931L38.5133 75.3763L42.1147 69.3136L17.0303 48.0305Z" fill="white"/>
</svg>
