<svg width="78" height="95" viewBox="0 0 78 95" fill="none" xmlns="http://www.w3.org/2000/svg">
<path d="M33.8728 10.4666C35.2774 8.10209 38.1863 7.68689 40.3701 9.53919L68.2121 33.1551C70.6603 35.2317 71.1037 39.1937 69.1415 41.4595L67.323 43.5594C67.1553 43.7532 67.0024 43.9635 66.8657 44.1885L44.7681 80.5806C44.5684 80.9095 44.4047 81.2677 44.2802 81.648L43.6366 83.6156C42.6053 86.7681 39.2114 87.7211 36.6757 85.5702L9.10016 62.1803C6.91639 60.328 6.28471 56.9096 7.68926 54.5452L33.8728 10.4666Z" fill="#8EEBFF"/>
<path fill-rule="evenodd" clip-rule="evenodd" d="M39.6513 7.49398C37.4677 5.64126 34.5589 6.05606 33.1544 8.42045L6.97141 52.4973C5.56689 54.8617 6.19848 58.2803 8.38211 60.133L35.9559 83.5282C38.4915 85.6796 41.8852 84.727 42.9165 81.5746L43.5602 79.607C43.6846 79.2266 43.8483 78.8684 44.048 78.5396L66.1452 42.149C66.2818 41.924 66.4347 41.7137 66.6024 41.5199L68.4209 39.4202C70.383 37.1546 69.9396 33.1923 67.4916 31.1152L39.6513 7.49398ZM39.7574 19.1986C38.7102 18.3101 37.3152 18.509 36.6417 19.6429C35.9681 20.7768 36.271 22.4162 37.3182 23.3047L55.2264 38.4991C56.2736 39.3876 57.6685 39.1886 58.3421 38.0547C59.0156 36.9209 58.7127 35.2814 57.6656 34.3929L39.7574 19.1986ZM32.7294 27.2794C33.403 26.1455 34.7979 25.9466 35.8451 26.8351L53.7533 42.0294C54.8005 42.9179 55.1034 44.5573 54.4298 45.6912C53.7563 46.8251 52.3613 47.024 51.3141 46.1355L33.4059 30.9412C32.3587 30.0527 32.0558 28.4133 32.7294 27.2794ZM17.0327 48.0305C15.6289 46.8395 13.759 47.1061 12.8561 48.6261L12.5244 49.1844C11.6215 50.7044 12.0275 52.9021 13.4313 54.0931L38.5157 75.3762L42.1171 69.3136L17.0327 48.0305Z" fill="white"/>
</svg>
