<svg width="31" height="33" viewBox="0 0 31 33" fill="none" xmlns="http://www.w3.org/2000/svg">
<path d="M5.78786 7.9732C5.75616 6.91087 6.59166 6.02399 7.65399 5.99229L22.4264 5.55152C23.6411 5.51527 24.5848 6.60004 24.3809 7.798L24.2649 8.47916C24.2447 8.59769 24.2357 8.71784 24.238 8.83804L24.5147 23.6636C24.518 23.839 24.5452 24.013 24.5956 24.181L24.6936 24.5074C25.0574 25.7193 24.1726 26.9464 22.9078 26.9842L8.29334 27.4202C7.23101 27.4519 6.34413 26.6165 6.31243 25.5541L5.78786 7.9732Z" fill="#8EEBFF"/>
<path fill-rule="evenodd" clip-rule="evenodd" d="M6.96923 5.62384C5.9069 5.65554 5.0714 6.54242 5.1031 7.60475L5.62767 25.1857C5.65937 26.248 6.54625 27.0835 7.60858 27.0518L22.2231 26.6157C23.4879 26.578 24.3726 25.3508 24.0088 24.1389L23.9108 23.8126C23.8604 23.6446 23.8332 23.4705 23.8299 23.2952L23.5532 8.4696C23.551 8.34939 23.56 8.22924 23.5802 8.11072L23.6961 7.42956C23.9001 6.23159 22.9563 5.14683 21.7417 5.18307L6.96923 5.62384ZM9.49883 8.69572C9.03726 8.70949 8.67424 9.09483 8.68801 9.55641C8.70178 10.018 9.08713 10.381 9.5487 10.3672L19.2075 10.079C19.669 10.0653 20.0321 9.67992 20.0183 9.21834C20.0045 8.75677 19.6192 8.39375 19.1576 8.40752L9.49883 8.69572ZM8.99292 12.5153C8.97914 12.0537 9.34216 11.6684 9.80374 11.6546L19.4625 11.3664C19.9241 11.3526 20.3094 11.7157 20.3232 12.1772C20.337 12.6388 19.974 13.0241 19.5124 13.0379L9.85361 13.3261C9.39203 13.3399 9.00669 12.9769 8.99292 12.5153ZM8.00502 21.7742C7.32352 21.7945 6.78754 22.3635 6.80787 23.045C6.8282 23.7265 7.39715 24.2625 8.07866 24.2421L21.2689 23.8486L21.1953 21.3806L8.00502 21.7742Z" fill="#002C44"/>
</svg>
